<svg width="20" height="20" viewBox="0 0 20 20" fill="none" xmlns="http://www.w3.org/2000/svg">
<g clip-path="url(#clip0)">
<path d="M10.0002 0C5.7498 0 2.29199 3.45781 2.29199 7.7082C2.29199 10.0988 3.52871 12.8754 5.96816 15.9605C7.75332 18.218 9.51269 19.7785 9.58652 19.8438C9.82133 20.0507 10.1758 20.0535 10.4139 19.8438C10.4877 19.7785 12.2471 18.218 14.0322 15.9605C16.4717 12.8754 17.7084 10.0988 17.7084 7.7082C17.7084 3.45781 14.2506 0 10.0002 0V0ZM6.56269 10.9375V8.25672C6.56269 8.08984 6.36695 7.99984 6.24027 8.10844L6.03184 8.28711C5.76973 8.51172 5.3752 8.48125 5.15059 8.21914C4.92598 7.95703 4.95644 7.5625 5.21855 7.33789L9.59355 3.58789C9.82754 3.3875 10.1729 3.3875 10.4068 3.58789L14.7818 7.33789C15.0439 7.5625 15.0744 7.95703 14.8498 8.21914C14.6238 8.48223 14.2296 8.51082 13.9686 8.28711L13.7601 8.10844C13.6334 7.99984 13.4377 8.08984 13.4377 8.25672V10.9375C13.4377 11.2827 13.1579 11.5625 12.8127 11.5625H7.18769C6.8425 11.5625 6.56269 11.2827 6.56269 10.9375Z" fill="#C2BFBF"/>
<path d="M7.8125 6.85039V10.1172C7.8125 10.225 7.89996 10.3125 8.00781 10.3125H11.9922C12.1 10.3125 12.1875 10.225 12.1875 10.1172V6.85039C12.1875 6.79336 12.1626 6.73922 12.1193 6.70211L10.1271 4.99453C10.054 4.93184 9.94605 4.93184 9.87289 4.99453L7.8807 6.70211C7.83742 6.73918 7.8125 6.79336 7.8125 6.85039Z" fill="#C2BFBF"/>
</g>
<defs>
<clipPath id="clip0">
<rect width="20" height="20" fill="white"/>
</clipPath>
</defs>
</svg>
