<svg width="36" height="36" viewBox="0 0 36 36" fill="none" xmlns="http://www.w3.org/2000/svg">
<rect width="36" height="36" rx="4" fill="#24AD65"/>
<path fill-rule="evenodd" clip-rule="evenodd" d="M20.1213 17.2331H22.8891C23.3088 17.2331 23.6386 16.8861 23.6386 16.4677C23.6386 16.0391 23.3088 15.7024 22.8891 15.7024H20.1213C19.7016 15.7024 19.3719 16.0391 19.3719 16.4677C19.3719 16.8861 19.7016 17.2331 20.1213 17.2331ZM26.1766 11.9275C26.7861 11.9275 27.1858 12.1418 27.5855 12.6112C27.9852 13.0807 28.0551 13.7542 27.9652 14.3655L27.0159 21.06C26.8361 22.3469 25.7569 23.2949 24.4879 23.2949H13.5864C12.2574 23.2949 11.1583 22.255 11.0484 20.908L10.1291 9.7834L8.62026 9.51807C8.22057 9.44664 7.94079 9.04864 8.01073 8.64043C8.08068 8.22305 8.47038 7.94649 8.88006 8.00874L11.2632 8.3751C11.6029 8.43735 11.8527 8.72207 11.8827 9.06905L12.0726 11.355C12.1025 11.6826 12.3623 11.9275 12.6821 11.9275H26.1766ZM13.4263 24.9079C12.587 24.9079 11.9075 25.6018 11.9075 26.459C11.9075 27.3061 12.587 28 13.4263 28C14.2557 28 14.9351 27.3061 14.9351 26.459C14.9351 25.6018 14.2557 24.9079 13.4263 24.9079ZM24.6676 24.9079C23.8282 24.9079 23.1487 25.6018 23.1487 26.459C23.1487 27.3061 23.8282 28 24.6676 28C25.4969 28 26.1764 27.3061 26.1764 26.459C26.1764 25.6018 25.4969 24.9079 24.6676 24.9079Z" fill="white"/>
</svg>
