<svg width="20" height="20" viewBox="0 0 20 20" fill="none" xmlns="http://www.w3.org/2000/svg">
<g clip-path="url(#clip0)">
<path d="M4.85907 8.71057C4.49345 8.71057 4.18481 9.11331 4.18481 9.58948C4.18481 10.066 4.49341 10.4688 4.85907 10.4688C5.2247 10.4688 5.53368 10.066 5.53368 9.58948C5.53368 9.11331 5.2247 8.71057 4.85907 8.71057Z" fill="#C2BFBF"/>
<path d="M10.7719 13.3586C10.4063 13.3586 10.0977 13.7614 10.0977 14.2379C10.0977 14.7141 10.4062 15.1168 10.7719 15.1168C11.1375 15.1168 11.4466 14.7141 11.4466 14.2379C11.4466 13.7614 11.1375 13.3586 10.7719 13.3586Z" fill="#C2BFBF"/>
<path d="M14.6036 6.23792C8.66281 0.771587 8.96668 0.980376 8.49437 0.7969C7.82316 0.53065 7.02449 0.669869 6.47281 1.17737L0.973086 6.23792C0.354687 6.80667 0 7.61604 0 8.45901V17.4203C0 18.4762 0.854726 19.3356 1.90512 19.3356H13.6711C14.7215 19.3356 15.5762 18.4762 15.5762 17.4203V8.45901C15.5762 7.61604 15.2215 6.80667 14.6036 6.23792ZM7.22129 4.31682C7.2568 3.97627 7.56914 3.73444 7.91859 3.80002C8.25281 3.86971 8.44105 4.19042 8.37875 4.48909C8.31254 4.80729 8.0132 5.00999 7.68969 4.94924C7.3807 4.88479 7.19211 4.60409 7.22129 4.31682ZM3.01297 9.58948C3.01297 8.45862 3.84113 7.5387 4.85914 7.5387C5.87754 7.5387 6.70566 8.45862 6.70566 9.58948C6.70566 10.7203 5.8775 11.6407 4.85914 11.6407C3.84113 11.6407 3.01297 10.7203 3.01297 9.58948ZM6.37207 15.8262C5.95801 15.8262 5.66902 15.4017 5.83223 15.0133L8.68465 8.21487C8.81004 7.91643 9.1534 7.77581 9.45183 7.9012C9.75027 8.0262 9.89051 8.36995 9.76551 8.66838L6.91269 15.4668C6.81855 15.691 6.60137 15.8262 6.37207 15.8262ZM10.7718 16.2887C9.75379 16.2887 8.92566 15.3688 8.92566 14.2379C8.92566 13.1071 9.75383 12.1867 10.7718 12.1867C11.7898 12.1867 12.6183 13.1071 12.6183 14.2379C12.6183 15.3688 11.7898 16.2887 10.7718 16.2887Z" fill="#C2BFBF"/>
<path d="M19.8529 12.6731C17.9451 7.11939 16.8854 4.03158 16.8704 3.9965C16.5387 3.22853 15.8942 2.63127 15.1028 2.35822C15.0573 2.34279 15.3253 2.40787 11.0757 1.39963L15.3965 5.37541C16.2555 6.16525 16.7481 7.28908 16.7481 8.459V16.0528L18.856 15.1504C19.8095 14.7379 20.2529 13.6305 19.8529 12.6731Z" fill="#C2BFBF"/>
</g>
<defs>
<clipPath id="clip0">
<rect width="20" height="20" fill="white"/>
</clipPath>
</defs>
</svg>
