<svg width="20" height="20" viewBox="0 0 20 20" fill="none" xmlns="http://www.w3.org/2000/svg">
<path d="M13.7109 0.343231V3.90624H17.2739L13.7109 0.343231Z" fill="#C2BFBF"/>
<path d="M11.2061 7.5H8.79395C8.33738 8.29699 7.56645 8.84055 6.67969 9.00793V11.8202C6.67969 13.9396 8.00668 15.7806 10 16.4554C11.9933 15.7806 13.3203 13.9396 13.3203 11.8202V9.00793C12.4336 8.84055 11.6626 8.29695 11.2061 7.5ZM12.0716 11.3016L9.86191 13.5113C9.7475 13.6257 9.59754 13.683 9.44762 13.683C9.2977 13.683 9.1477 13.6258 9.03332 13.5113L7.92848 12.4065C7.69965 12.1777 7.69965 11.8067 7.92848 11.5779C8.15727 11.349 8.52828 11.349 8.75711 11.5779L9.44766 12.2684L11.243 10.473C11.4718 10.2442 11.8429 10.2442 12.0717 10.473C12.3004 10.7018 12.3004 11.0728 12.0716 11.3016Z" fill="#C2BFBF"/>
<path d="M13.125 5.07812C12.8014 5.07812 12.5391 4.81578 12.5391 4.49219V0H4.53125C3.3466 0 2.38281 0.963789 2.38281 2.14844V17.8516C2.38281 19.0362 3.3466 20 4.53125 20H15.4688C16.6534 20 17.6172 19.0362 17.6172 17.8516V5.07812H13.125ZM14.4922 11.8202C14.4922 13.1348 14.0774 14.3872 13.2927 15.4419C12.5079 16.4966 11.4275 17.2538 10.1684 17.6315C10.1134 17.648 10.0567 17.6562 10 17.6562C9.94328 17.6562 9.88656 17.648 9.83164 17.6315C8.57246 17.2538 7.49207 16.4966 6.70734 15.4419C5.92262 14.3872 5.50781 13.1348 5.50781 11.8202V8.47656C5.50781 8.15297 5.77016 7.89062 6.09375 7.89062C6.83418 7.89062 7.49984 7.47922 7.83094 6.81699L7.9134 6.65207C8.01266 6.45352 8.21555 6.32812 8.4375 6.32812H11.5625C11.7845 6.32812 11.9873 6.45352 12.0866 6.65203L12.1691 6.81699C12.5002 7.47922 13.1658 7.89062 13.9062 7.89062C14.2298 7.89062 14.4922 8.15297 14.4922 8.47656V11.8202Z" fill="#C2BFBF"/>
</svg>
